<svg width="107" height="107" viewBox="0 0 107 107" fill="none" xmlns="http://www.w3.org/2000/svg">
<g clip-path="url(#clip0)">
<path d="M92.9213 84.8216C92.5363 84.4364 92.0019 84.215 91.4574 84.215C90.9128 84.215 90.3784 84.4364 89.9934 84.8216C89.6083 85.2067 89.3867 85.7411 89.3867 86.2856C89.3867 86.8301 89.6083 87.3645 89.9934 87.7494C90.3784 88.1344 90.9128 88.3562 91.4574 88.3562C92.0019 88.3562 92.5363 88.1346 92.9213 87.7494C93.3087 87.3643 93.528 86.8301 93.528 86.2856C93.528 85.7411 93.3087 85.2067 92.9213 84.8216Z" fill="#38ABFF"/>
<path d="M41.0317 90.8411C36.693 90.8411 33.163 94.3709 33.163 98.7098C33.163 103.048 36.6928 106.579 41.0317 106.579C45.3704 106.579 48.9004 103.049 48.9004 98.7098C48.9004 94.3709 45.3704 90.8411 41.0317 90.8411ZM41.0317 102.437C38.9766 102.437 37.3045 100.765 37.3045 98.7098C37.3045 96.6547 38.9766 94.9826 41.0317 94.9826C43.0868 94.9826 44.7589 96.6547 44.7589 98.7098C44.7589 100.765 43.0868 102.437 41.0317 102.437Z" fill="#38ABFF"/>
<path d="M79.0129 90.8411C74.6742 90.8411 71.1442 94.3709 71.1442 98.7098C71.1442 103.048 74.674 106.579 79.0129 106.579C83.3516 106.579 86.8816 103.049 86.8816 98.7098C86.8816 94.3709 83.3518 90.8411 79.0129 90.8411ZM79.0129 102.437C76.9578 102.437 75.2857 100.765 75.2857 98.7098C75.2857 96.6547 76.9578 94.9826 79.0129 94.9826C81.068 94.9826 82.7401 96.6547 82.7401 98.7098C82.7401 100.765 81.0684 102.437 79.0129 102.437Z" fill="#38ABFF"/>
<path d="M97.7661 55.3309C96.6438 55.1144 95.5573 55.8493 95.341 56.9726L92.3315 72.5963C92.144 73.5692 91.2888 74.2753 90.2981 74.2753H30.543L22.4332 39.0044H43.727C44.8708 39.0044 45.7976 38.0773 45.7976 36.9337C45.7976 35.7902 44.8705 34.8631 43.727 34.8631H21.4808L19.2722 25.2574C18.62 22.4193 16.1303 20.4371 13.2181 20.4371H3.02108C1.87754 20.4369 0.950439 21.364 0.950439 22.5078C0.950439 23.6515 1.87754 24.5784 3.02108 24.5784H13.2183C14.1891 24.5784 15.0189 25.2389 15.2364 26.1851L29.1619 86.7495C29.3781 87.6898 30.2151 88.3561 31.1799 88.3561H83.9967C85.1405 88.3561 86.0673 87.4288 86.0673 86.2855C86.0673 85.142 85.1403 84.2149 83.9967 84.2149H32.8284L31.4954 78.417H90.2981C93.2704 78.417 95.836 76.2987 96.398 73.3801L99.4075 57.7563C99.624 56.6329 98.8891 55.5473 97.7661 55.3309Z" fill="#38ABFF"/>
<path d="M106.198 28.5327C107.514 26.3956 107.184 23.6727 105.396 21.9119L103.328 19.8748C103.075 19.6253 102.944 19.2789 102.969 18.9241L103.176 16.0144C103.355 13.4995 101.794 11.235 99.3804 10.5073L96.642 9.68174C96.2994 9.57838 96.0215 9.33087 95.879 9.00278L94.7327 6.3584C93.7394 4.06675 91.2393 2.75295 88.7886 3.23348L86.01 3.77885C85.6567 3.84782 85.2942 3.75813 85.0144 3.53216L82.8025 1.74632C80.8536 0.172985 78.0243 0.17257 76.0752 1.74632L73.8633 3.53216C73.5833 3.75813 73.2208 3.84823 72.8674 3.77864L70.0886 3.23328C67.6377 2.75212 65.1379 4.06634 64.1447 6.35757L62.9981 9.00257C62.8558 9.33087 62.5778 9.57818 62.2352 9.68153L59.4972 10.5069C57.0834 11.2348 55.5227 13.4993 55.7018 16.014L55.909 18.9239C55.9342 19.2785 55.8033 19.6248 55.5502 19.8744L53.4823 21.9115C51.6944 23.6725 51.3644 26.3952 52.6797 28.5323L54.2087 31.0172C54.3947 31.3196 54.439 31.6866 54.3305 32.0247L53.4357 34.807C52.6662 37.1999 53.6384 39.7675 55.7996 41.0504L58.2783 42.522C58.5848 42.7039 58.7949 43.0098 58.8547 43.3613L59.3423 46.2225C59.7673 48.7161 61.8288 50.5451 64.355 50.6706L67.1934 50.8116C67.552 50.8295 67.8821 51.0036 68.0992 51.2891L69.8301 53.5666C70.8647 54.9274 72.4731 55.675 74.1114 55.675C74.8722 55.675 75.6396 55.5138 76.3588 55.1781L78.9251 53.9798C79.2513 53.8274 79.6253 53.8274 79.9518 53.9798L82.5177 55.1781C84.7861 56.2371 87.5318 55.5594 89.0465 53.566L90.7766 51.2893C90.9939 51.0034 91.3241 50.8295 91.6826 50.8116L94.5217 50.6704C97.048 50.5449 99.1093 48.7159 99.5343 46.2223L100.022 43.3611C100.082 43.0096 100.292 42.7039 100.598 42.5218L103.077 41.0504C105.238 39.7675 106.21 37.1999 105.441 34.807L104.546 32.0247C104.438 31.6866 104.482 31.3196 104.668 31.0174L106.198 28.5327ZM102.671 26.3622L101.142 28.8473C100.321 30.1812 100.125 31.8016 100.605 33.2925L101.5 36.0748C101.674 36.6171 101.454 37.1989 100.964 37.4895L98.4859 38.9609C97.1329 39.7641 96.2054 41.1142 95.9407 42.6654L95.4531 45.5264C95.3568 46.0912 94.8899 46.5057 94.3172 46.5343L91.4779 46.6755C89.8959 46.7542 88.439 47.5225 87.4804 48.7837L85.7503 51.0604C85.4069 51.5117 84.7849 51.6654 84.2708 51.4256L81.7049 50.2273C80.265 49.5548 78.6131 49.555 77.1734 50.2273L74.6073 51.4256C74.0934 51.6658 73.4712 51.5119 73.128 51.0604L71.397 48.7828C70.4387 47.5221 68.9817 46.7538 67.3997 46.6751L64.5613 46.5341C63.989 46.5057 63.5217 46.0912 63.4254 45.5262L62.9378 42.6649C62.6733 41.114 61.7458 39.7637 60.3928 38.9607L57.9142 37.4893C57.4245 37.1985 57.2043 36.6169 57.3787 36.0746L58.2735 33.2923C58.7528 31.8012 58.5573 30.181 57.7364 28.8469L56.2072 26.3618C55.9092 25.8778 55.9839 25.2607 56.3891 24.8618L58.4572 22.8245C59.5749 21.7234 60.1519 20.1944 60.0405 18.6296L59.8334 15.7197C59.7928 15.1501 60.1466 14.6368 60.6932 14.4719L63.4312 13.6466C64.9428 13.1909 66.17 12.0985 66.7982 10.6501L67.9449 8.00505C68.1389 7.55787 68.5861 7.27472 69.0617 7.27472C69.1381 7.27472 69.215 7.28218 69.2918 7.29709L72.0704 7.84225C73.6282 8.14859 75.2299 7.75153 76.4652 6.75422L78.6771 4.96837C79.1189 4.6117 79.76 4.61191 80.2014 4.96837L82.4133 6.75422C83.6484 7.75132 85.2497 8.14776 86.8081 7.84246L89.5865 7.2973C90.1422 7.18752 90.7083 7.4862 90.933 8.00526L92.0792 10.6496C92.7072 12.0987 93.9347 13.1911 95.4467 13.6468L98.1851 14.4724C98.7319 14.6372 99.0857 15.1503 99.0451 15.7201L98.838 18.6298C98.7265 20.1946 99.3036 21.7236 100.421 22.8249L102.489 24.862C102.894 25.261 102.969 25.8778 102.671 26.3622Z" fill="#38ABFF"/>
<path d="M84.2291 18.7393C83.233 18.1769 81.9702 18.5284 81.408 19.5245L71.8046 36.5358C71.2425 37.5319 71.5938 38.7947 72.5898 39.3568C72.9117 39.5385 73.2609 39.6249 73.606 39.6249C74.3287 39.6249 75.0304 39.2458 75.4111 38.5716L85.0145 21.5603C85.5765 20.5643 85.2247 19.3014 84.2291 18.7393Z" fill="#38ABFF"/>
<path d="M85.68 29.6172C82.7105 29.6172 80.2946 32.0331 80.2946 35.0027C80.2946 37.9723 82.7105 40.3882 85.68 40.3882C88.6496 40.3882 91.0655 37.9723 91.0655 35.0027C91.0655 32.0331 88.6494 29.6172 85.68 29.6172ZM85.68 36.2469C84.994 36.2469 84.436 35.6889 84.436 35.0029C84.436 34.3169 84.994 33.7589 85.68 33.7589C86.366 33.7589 86.924 34.3169 86.924 35.0029C86.924 35.6889 86.366 36.2469 85.68 36.2469Z" fill="#38ABFF"/>
<path d="M73.1984 15.8514C70.2288 15.8514 67.8129 18.2674 67.8129 21.2369C67.8129 24.2065 70.2288 26.6224 73.1984 26.6224C76.1679 26.6224 78.5839 24.2065 78.5839 21.2369C78.5839 18.2674 76.1679 15.8514 73.1984 15.8514ZM73.1982 22.4811C72.5121 22.4811 71.9541 21.9231 71.9541 21.2371C71.9541 20.5511 72.5121 19.9931 73.1982 19.9931C73.8842 19.9931 74.4422 20.5511 74.4422 21.2371C74.4422 21.9229 73.8842 22.4811 73.1982 22.4811Z" fill="#38ABFF"/>
</g>
<defs>
<clipPath id="clip0">
<rect width="106.049" height="106.049" fill="white" transform="translate(0.950439 0.547852)"/>
</clipPath>
</defs>
</svg>
