<svg width="21" height="21" viewBox="0 0 21 21" fill="none" xmlns="http://www.w3.org/2000/svg">
<g clip-path="url(#clip0)">
<path d="M20.449 16.2014L16.1985 13.3668C15.6591 13.01 14.9361 13.1274 14.5373 13.6366L13.2992 15.2285C13.14 15.4383 12.8508 15.4992 12.6206 15.3713L12.3851 15.2415C11.6044 14.8159 10.6329 14.2861 8.67567 12.3282C6.7184 10.3702 6.18754 9.39804 5.76198 8.61874L5.63284 8.38322C5.50321 8.15307 5.56292 7.8626 5.77281 7.70222L7.36365 6.46447C7.87266 6.06565 7.99023 5.34281 7.63382 4.80325L4.79924 0.552777C4.43397 0.00333081 3.70113 -0.16161 3.13565 0.178318L1.35825 1.246C0.799785 1.57432 0.390059 2.10605 0.214989 2.72977C-0.425046 5.06182 0.0564462 9.08657 5.98528 15.0161C10.7015 19.732 14.2126 21.0002 16.6258 21.0002C17.1812 21.0026 17.7344 20.9303 18.2706 20.7854C18.8944 20.6105 19.4262 20.2007 19.7544 19.6421L20.8231 17.8658C21.1635 17.3002 20.9987 16.5669 20.449 16.2014ZM20.2201 17.5067L19.1538 19.2841C18.9182 19.6873 18.5357 19.9838 18.0865 20.1114C15.9336 20.7024 12.1723 20.2129 6.48043 14.521C0.788508 8.82903 0.298977 5.06813 0.890047 2.91493C1.01783 2.46513 1.31466 2.08215 1.71836 1.84618L3.49575 0.779887C3.74111 0.632253 4.05918 0.703815 4.21768 0.942244L5.75747 3.25399L7.04984 5.19235C7.20461 5.42639 7.15376 5.74007 6.93297 5.91326L5.34175 7.15101C4.85751 7.52128 4.71923 8.19125 5.01737 8.72298L5.14372 8.95256C5.59097 9.77283 6.14702 10.7933 8.17707 12.823C10.2071 14.8527 11.2272 15.4088 12.0471 15.856L12.277 15.9827C12.8087 16.2808 13.4787 16.1425 13.849 15.6583L15.0868 14.0671C15.26 13.8464 15.5736 13.7956 15.8077 13.9502L20.0578 16.7848C20.2964 16.9431 20.3679 17.2614 20.2201 17.5067Z" fill="white"/>
<path d="M11.8994 3.50181C15.1835 3.50546 17.8448 6.16686 17.8485 9.45094C17.8485 9.64422 18.0052 9.80088 18.1984 9.80088C18.3917 9.80088 18.5484 9.64422 18.5484 9.45094C18.5443 5.78046 15.5699 2.80596 11.8994 2.80194C11.7061 2.80194 11.5494 2.9586 11.5494 3.15188C11.5494 3.34515 11.7061 3.50181 11.8994 3.50181Z" fill="white"/>
<path d="M11.8994 5.60154C14.0243 5.60404 15.7463 7.32603 15.7488 9.45098C15.7488 9.64426 15.9055 9.80092 16.0988 9.80092C16.292 9.80092 16.4487 9.64426 16.4487 9.45098C16.4458 6.93964 14.4107 4.90454 11.8994 4.90167C11.7061 4.90167 11.5494 5.05833 11.5494 5.25161C11.5494 5.44488 11.7061 5.60154 11.8994 5.60154Z" fill="white"/>
<path d="M11.8994 7.70121C12.8652 7.70236 13.6479 8.48507 13.6491 9.45096C13.6491 9.64424 13.8058 9.8009 13.9991 9.8009C14.1923 9.8009 14.349 9.64424 14.349 9.45096C14.3474 8.09872 13.2516 7.00286 11.8994 7.00134C11.7061 7.00134 11.5494 7.158 11.5494 7.35128C11.5494 7.54456 11.7061 7.70121 11.8994 7.70121Z" fill="white"/>
</g>
<defs>
<clipPath id="clip0">
<rect width="21" height="21" fill="white"/>
</clipPath>
</defs>
</svg>
