<svg width="21" height="21" viewBox="0 0 21 21" fill="none" xmlns="http://www.w3.org/2000/svg">
<g clip-path="url(#clip0)">
<path d="M20.996 8.02905C20.9938 8.00493 20.989 7.98109 20.9816 7.958C20.9769 7.93737 20.9702 7.91723 20.9617 7.89779C20.9519 7.8788 20.9402 7.86083 20.9267 7.84422C20.9132 7.82449 20.8976 7.80632 20.8802 7.78995C20.8746 7.78507 20.8721 7.77839 20.8662 7.7735L17.5001 5.15924V2.44977C17.5001 1.86987 17.0299 1.39972 16.45 1.39972H12.6569L11.1381 0.220503C10.7629 -0.0721175 10.2368 -0.0721175 9.86159 0.220503L8.3425 1.39972H4.54935C3.96944 1.39972 3.49929 1.86982 3.49929 2.44977V5.15928L0.134241 7.77355C0.128294 7.77847 0.125833 7.78511 0.120254 7.78999C0.102822 7.80632 0.087194 7.82453 0.0736992 7.84426C0.0602454 7.86087 0.0485143 7.8788 0.0387111 7.89783C0.0302204 7.91723 0.0235756 7.93741 0.0187765 7.95804C0.0114754 7.98081 0.00667629 8.00427 0.00442032 8.02806C0.00442032 8.0354 0.000236511 8.04172 0.000236511 8.04906V19.9506C0.000728724 20.1733 0.0727558 20.3899 0.205694 20.5684C0.207786 20.5716 0.208155 20.5754 0.210575 20.5782C0.213036 20.581 0.218287 20.5842 0.221773 20.588C0.418412 20.8468 0.72424 20.9993 1.04922 21.0007H19.9502C20.2764 20.9997 20.5835 20.8464 20.7804 20.5863C20.7832 20.5828 20.7874 20.5817 20.7899 20.5782C20.7923 20.5748 20.7926 20.5716 20.7948 20.5684C20.9277 20.3899 20.9997 20.1733 21.0002 19.9507V8.05005C21.0002 8.0427 20.9964 8.03639 20.996 8.02905ZM10.2896 0.772806C10.4119 0.675676 10.585 0.675676 10.7072 0.772806L11.5147 1.39968H9.48459L10.2896 0.772806ZM1.13741 20.3007L10.2897 13.1915C10.412 13.0945 10.585 13.0945 10.7072 13.1915L19.8619 20.3007H1.13741ZM20.3002 19.755L11.1381 12.6391C10.7628 12.3467 10.2369 12.3467 9.86159 12.6391L0.699178 19.755V8.58311L6.43493 13.0371C6.58776 13.1556 6.8077 13.1278 6.9262 12.975C7.0447 12.8221 7.01689 12.6022 6.86406 12.4837L1.03696 7.95903L3.49933 6.04547V8.75005C3.49933 8.94337 3.65606 9.10006 3.84934 9.10006C4.04265 9.10006 4.19934 8.94333 4.19934 8.75005V2.44973C4.19934 2.25642 4.35603 2.09973 4.54935 2.09973H16.4499C16.6432 2.09973 16.7999 2.25642 16.7999 2.44973V8.75005C16.7999 8.94337 16.9566 9.10006 17.1499 9.10006C17.3433 9.10006 17.4999 8.94333 17.4999 8.75005V6.04547L19.9623 7.95903L14.1251 12.4918C14.0247 12.5679 13.9729 12.6921 13.9895 12.817C14.0062 12.9419 14.0887 13.0482 14.2055 13.0953C14.3224 13.1424 14.4556 13.1232 14.5542 13.0448L20.3001 8.58311V19.755H20.3002Z" fill="white"/>
<path d="M14.6997 8.39916V6.9991C14.6997 4.67939 12.8192 2.79889 10.4995 2.79889C8.17975 2.79889 6.29926 4.67939 6.29926 6.9991C6.29926 9.31882 8.17975 11.1993 10.4995 11.1993C10.6928 11.1993 10.8495 11.0426 10.8495 10.8493C10.8495 10.656 10.6928 10.4993 10.4995 10.4993C8.56639 10.4993 6.9993 8.93223 6.9993 6.99914C6.9993 5.06606 8.56639 3.49898 10.4995 3.49898C12.4326 3.49898 13.9996 5.06606 13.9996 6.99914V8.3992C13.9996 8.78583 13.6862 9.09925 13.2996 9.09925C12.913 9.09925 12.5995 8.78583 12.5995 8.3992V6.99914C12.5995 6.80583 12.4428 6.64914 12.2495 6.64914C12.0562 6.64914 11.8995 6.80583 11.8995 6.99914C11.8995 7.77237 11.2727 8.3992 10.4995 8.3992C9.72624 8.3992 9.09941 7.77237 9.09941 6.99914C9.09941 6.22592 9.72624 5.59909 10.4995 5.59909C10.6928 5.59909 10.8495 5.4424 10.8495 5.24908C10.8495 5.05577 10.6928 4.89908 10.4995 4.89908C9.55955 4.89699 8.73267 5.51968 8.47508 6.42362C8.21749 7.32757 8.59186 8.2926 9.3917 8.78628C10.1915 9.27997 11.222 9.18211 11.9146 8.54662C11.9908 9.28682 12.6342 9.8372 13.3772 9.79786C14.1203 9.75849 14.702 9.1433 14.6997 8.39916Z" fill="white"/>
</g>
<defs>
<clipPath id="clip0">
<rect width="21" height="21" fill="white"/>
</clipPath>
</defs>
</svg>
