<svg width="32" height="32" viewBox="0 0 32 32" fill="none" xmlns="http://www.w3.org/2000/svg">
<g clip-path="url(#clip0)">
<path d="M18.6448 15.6495C18.6448 17.3038 17.3037 18.6449 15.6493 18.6449C13.995 18.6449 12.6539 17.3038 12.6539 15.6495C12.6539 13.9951 13.995 12.6541 15.6493 12.6541C17.3037 12.6541 18.6448 13.9951 18.6448 15.6495Z" fill="white"/>
<path d="M22.6545 10.3497C22.5106 9.95951 22.2808 9.60634 21.9823 9.31644C21.6925 9.01795 21.3395 8.78823 20.9491 8.64424C20.6325 8.52126 20.1568 8.37488 19.2806 8.33501C18.3329 8.29178 18.0487 8.28247 15.6493 8.28247C13.2497 8.28247 12.9655 8.29154 12.018 8.33477C11.1419 8.37488 10.666 8.52126 10.3496 8.64424C9.95914 8.78823 9.60597 9.01795 9.31631 9.31644C9.01782 9.60634 8.78811 9.95927 8.64388 10.3497C8.5209 10.6663 8.37452 11.1422 8.33464 12.0184C8.29142 12.9659 8.2821 13.2501 8.2821 15.6497C8.2821 18.0491 8.29142 18.3332 8.33464 19.281C8.37452 20.1571 8.5209 20.6328 8.64388 20.9495C8.78811 21.3399 9.01759 21.6928 9.31608 21.9827C9.60597 22.2812 9.95891 22.5109 10.3493 22.6549C10.666 22.7781 11.1419 22.9245 12.018 22.9644C12.9655 23.0076 13.2495 23.0167 15.6491 23.0167C18.049 23.0167 18.3331 23.0076 19.2804 22.9644C20.1565 22.9245 20.6325 22.7781 20.9491 22.6549C21.7328 22.3526 22.3522 21.7332 22.6545 20.9495C22.7775 20.6328 22.9239 20.1571 22.964 19.281C23.0072 18.3332 23.0163 18.0491 23.0163 15.6497C23.0163 13.2501 23.0072 12.9659 22.964 12.0184C22.9241 11.1422 22.7778 10.6663 22.6545 10.3497ZM15.6493 20.2639C13.1007 20.2639 11.0347 18.1981 11.0347 15.6495C11.0347 13.1008 13.1007 11.035 15.6493 11.035C18.1977 11.035 20.2638 13.1008 20.2638 15.6495C20.2638 18.1981 18.1977 20.2639 15.6493 20.2639ZM20.4462 11.931C19.8506 11.931 19.3678 11.4481 19.3678 10.8526C19.3678 10.257 19.8506 9.77421 20.4462 9.77421C21.0417 9.77421 21.5246 10.257 21.5246 10.8526C21.5243 11.4481 21.0417 11.931 20.4462 11.931Z" fill="white"/>
<path d="M15.6494 0C7.00772 0 -0.00012207 7.00784 -0.00012207 15.6495C-0.00012207 24.2912 7.00772 31.299 15.6494 31.299C24.291 31.299 31.2989 24.2912 31.2989 15.6495C31.2989 7.00784 24.291 0 15.6494 0ZM24.5814 19.3544C24.538 20.311 24.3858 20.9641 24.1638 21.5357C23.6969 22.7428 22.7427 23.6971 21.5356 24.1639C20.9642 24.386 20.3109 24.5378 19.3545 24.5815C18.3962 24.6252 18.0901 24.6357 15.6496 24.6357C13.2089 24.6357 12.903 24.6252 11.9445 24.5815C10.9882 24.5378 10.3348 24.386 9.76339 24.1639C9.16354 23.9382 8.62053 23.5846 8.1716 23.1273C7.71455 22.6786 7.3609 22.1354 7.13524 21.5357C6.91316 20.9643 6.76105 20.311 6.71759 19.3546C6.67341 18.3961 6.66314 18.09 6.66314 15.6495C6.66314 13.209 6.67341 12.9029 6.71735 11.9446C6.76081 10.988 6.91268 10.3349 7.13476 9.76327C7.36042 9.16366 7.71431 8.62041 8.1716 8.17172C8.62029 7.71443 9.16354 7.36078 9.76315 7.13512C10.3348 6.91304 10.9879 6.76117 11.9445 6.71747C12.9028 6.67377 13.2089 6.66327 15.6494 6.66327C18.0898 6.66327 18.396 6.67377 19.3543 6.71771C20.3109 6.76117 20.964 6.91304 21.5356 7.13488C22.1352 7.36054 22.6785 7.71443 23.1274 8.17172C23.5845 8.62065 23.9384 9.16366 24.1638 9.76327C24.3861 10.3349 24.538 10.988 24.5817 11.9446C24.6254 12.9029 24.6356 13.209 24.6356 15.6495C24.6356 18.09 24.6254 18.3961 24.5814 19.3544Z" fill="white"/>
</g>
<defs>
<clipPath id="clip0">
<rect width="31.299" height="31.299" fill="white" transform="translate(-0.00012207)"/>
</clipPath>
</defs>
</svg>
