<svg width="107" height="107" viewBox="0 0 107 107" fill="none" xmlns="http://www.w3.org/2000/svg">
<g clip-path="url(#clip0)">
<path d="M44.9286 93.5721C43.7852 93.5721 42.8573 94.5001 42.8573 95.6434C42.8573 96.7867 43.7852 97.7147 44.9286 97.7147C46.0719 97.7147 46.9998 96.7867 46.9998 95.6434C46.9998 94.5001 46.0719 93.5721 44.9286 93.5721Z" fill="#38ABFF"/>
<path d="M57.3562 72.8594H55.2849V58.3606C55.2849 57.2166 54.3576 56.2893 53.2137 56.2893H49.0711C47.9272 56.2893 46.9999 57.2166 46.9999 58.3606C46.9999 59.5045 47.9272 60.4318 49.0711 60.4318H51.1424V72.8594H49.0711C47.9272 72.8594 46.9999 73.7868 46.9999 74.9307C46.9999 76.0747 47.9272 77.002 49.0711 77.002H57.3562C58.5002 77.002 59.4275 76.0747 59.4275 74.9307C59.4275 73.7868 58.5002 72.8594 57.3562 72.8594Z" fill="#38ABFF"/>
<path d="M23.5945 85.2871C24.7385 85.2871 25.6658 84.3598 25.6658 83.2158V74.9308C25.6658 73.7868 24.7385 72.8595 23.5945 72.8595H15.3094C14.1655 72.8595 13.2382 73.7868 13.2382 74.9308C13.2382 76.0747 14.1655 77.002 15.3094 77.002H21.5232V81.1446H15.3094C14.1655 81.1446 13.2382 82.0719 13.2382 83.2158V91.5009C13.2382 92.6449 14.1655 93.5722 15.3094 93.5722H23.5945C24.7385 93.5722 25.6658 92.6449 25.6658 91.5009C25.6658 90.3569 24.7385 89.4296 23.5945 89.4296H17.3807V85.2871H23.5945Z" fill="#38ABFF"/>
<path d="M91.1178 77.0021H82.8327C81.6888 77.0021 80.7615 77.9294 80.7615 79.0733C80.7615 80.2173 81.6888 81.1446 82.8327 81.1446H89.0465V85.2871H82.8327C81.6888 85.2871 80.7615 86.2145 80.7615 87.3584C80.7615 88.5024 81.6888 89.4297 82.8327 89.4297H89.0465V93.5722H82.8327C81.6888 93.5722 80.7615 94.4995 80.7615 95.6435C80.7615 96.7874 81.6888 97.7148 82.8327 97.7148H91.1178C92.2618 97.7148 93.1891 96.7874 93.1891 95.6435V79.0733C93.1891 77.9294 92.2618 77.0021 91.1178 77.0021Z" fill="#38ABFF"/>
<path d="M104.167 68.717H71.8551V49.4542C71.8551 48.3102 70.9277 47.3829 69.7838 47.3829H36.6435C35.4996 47.3829 34.5722 48.3102 34.5722 49.4542V60.4319H2.26048C1.11652 60.4319 0.189209 61.3592 0.189209 62.5032V104.55C0.189209 105.694 1.11652 106.621 2.26048 106.621H36.6435H69.7838H104.167C105.311 106.621 106.238 105.694 106.238 104.55V70.7883C106.238 69.6443 105.311 68.717 104.167 68.717ZM34.5722 102.479H4.33174V64.5745H34.5722V102.479ZM67.7125 102.479H38.7148V51.5255H67.7125V102.479ZM102.096 102.479H71.8551V72.8595H102.096V102.479Z" fill="#38ABFF"/>
<path d="M73.7754 16.3572C73.5316 15.6074 72.8835 15.0608 72.1032 14.9475L60.3105 13.2343L55.013 1.77443C54.6741 1.04161 53.9405 0.572266 53.1329 0.572266C52.3257 0.572266 51.5917 1.04141 51.2528 1.77422L45.9535 13.2348L34.1605 14.9479C33.3803 15.0612 32.7322 15.6078 32.4884 16.3576C32.2448 17.1074 32.448 17.9305 33.0126 18.4809L41.5773 26.8291L39.5477 39.2381C39.4209 40.0133 39.7434 40.7936 40.3807 41.253C41.0183 41.7122 41.8606 41.7714 42.5556 41.4059L53.1325 35.8439L63.7073 41.4056C64.0106 41.5651 64.3416 41.6436 64.6713 41.6436C65.098 41.6436 65.5228 41.5119 65.8824 41.2528C66.5197 40.7936 66.8424 40.0133 66.7157 39.2379L64.686 26.8289L73.2507 18.4807C73.8158 17.9303 74.0189 17.1072 73.7754 16.3572ZM61.0224 24.6153C60.5383 25.0872 60.3148 25.7657 60.424 26.4329L61.9567 35.8037L54.0969 31.6701C53.4933 31.3528 52.7723 31.3528 52.1687 31.6701L44.3068 35.8041L45.8395 26.4329C45.9487 25.7657 45.7254 25.0872 45.2412 24.6153L38.9095 18.4438L47.66 17.1726C48.353 17.072 48.9483 16.6279 49.2422 15.9922L53.1325 7.57916L57.0211 15.9918C57.315 16.6277 57.9103 17.0718 58.6035 17.1724L67.354 18.4436L61.0224 24.6153Z" fill="#38ABFF"/>
<path d="M61.4987 93.5721H53.2136C52.0696 93.5721 51.1423 94.4994 51.1423 95.6434C51.1423 96.7874 52.0696 97.7147 53.2136 97.7147H61.4987C62.6426 97.7147 63.5699 96.7874 63.5699 95.6434C63.5699 94.4994 62.6426 93.5721 61.4987 93.5721Z" fill="#38ABFF"/>
</g>
<defs>
<clipPath id="clip0">
<rect width="106.049" height="106.049" fill="white" transform="translate(0.189209 0.572266)"/>
</clipPath>
</defs>
</svg>
