<svg width="107" height="107" viewBox="0 0 107 107" fill="none" xmlns="http://www.w3.org/2000/svg">
<g clip-path="url(#clip0)">
<path d="M96.6198 9.05123C96.0655 8.63617 95.4069 8.35542 94.6877 8.25104L90.3348 7.61914C89.9828 7.56736 89.6786 7.34729 89.5216 7.02851L87.575 3.08339C86.8573 1.62946 85.4034 0.725708 83.782 0.725708C82.1597 0.725708 80.7066 1.62946 79.9889 3.08339L78.0423 7.02851C77.8845 7.34729 77.5811 7.56736 77.2291 7.61914L72.8763 8.25104C72.1829 8.35218 71.5461 8.61513 71.0048 9.00511H65.8016C65.2603 8.61513 64.6235 8.35218 63.931 8.25104L59.5773 7.61914C59.2261 7.56736 58.9219 7.34729 58.7649 7.02851L56.8175 3.08339C56.1006 1.62946 54.6467 0.725708 53.0253 0.725708C51.4038 0.725708 49.9499 1.62946 49.2322 3.08339L47.2856 7.0277C47.1278 7.34648 46.8244 7.56736 46.4724 7.61834L42.1195 8.25104C41.4262 8.35218 40.7894 8.61513 40.2481 9.00511H35.0449C34.5036 8.61513 33.8668 8.35218 33.1743 8.25104L28.8206 7.61834C28.4694 7.56736 28.1652 7.34648 28.0082 7.0277L26.0608 3.08339C25.3431 1.62946 23.89 0.725708 22.2677 0.725708C20.6463 0.725708 19.1924 1.62946 18.4747 3.08339L16.5289 7.02851C16.3719 7.34729 16.0677 7.56736 15.7157 7.61914L11.3628 8.25104C10.6436 8.35622 9.98497 8.63617 9.43074 9.05123C4.09803 9.54397 0 13.9899 0 19.4132V74.8504C0 80.6426 4.71213 85.3548 10.5044 85.3548H33.1176L31.0269 94.1148H26.6708C22.1456 94.1148 18.4634 97.797 18.4634 102.322V105.152C18.4634 106.021 19.1689 106.726 20.0387 106.726H86.0118C86.8816 106.726 87.5871 106.021 87.5871 105.152V102.322C87.5871 97.797 83.9049 94.1148 79.3797 94.1148H75.0236L72.9321 85.3548H95.5469C101.338 85.3548 106.049 80.6426 106.049 74.8504V19.4132C106.049 13.9899 101.952 9.54397 96.6198 9.05123ZM72.4579 12.1031C72.5202 11.9114 72.7298 11.4558 73.3293 11.3685L77.6822 10.7358C79.0601 10.5359 80.2503 9.67099 80.8668 8.42257L82.8143 4.47745C83.0821 3.93455 83.5805 3.87549 83.782 3.87549C83.9834 3.87549 84.4818 3.93455 84.7504 4.47745L86.6971 8.42257C87.3136 9.67099 88.5038 10.5359 89.8817 10.7358L94.2354 11.3685C94.8341 11.4558 95.0445 11.9114 95.1068 12.1031C95.1691 12.2957 95.267 12.7876 94.8333 13.2099L91.6835 16.2804C90.6859 17.2522 90.2312 18.6519 90.4666 20.0249L91.2102 24.36C91.313 24.9571 90.944 25.2977 90.7814 25.4159C90.618 25.5348 90.1802 25.78 89.6438 25.4984L85.7505 23.4514C85.1339 23.1269 84.4584 22.9651 83.782 22.9651C83.1064 22.9651 82.43 23.1269 81.8134 23.4514L77.9201 25.4984C77.3845 25.78 76.946 25.5348 76.7833 25.4159C76.6199 25.2977 76.251 24.9571 76.3537 24.36L77.0973 20.0249C77.3327 18.6519 76.878 17.2522 75.8812 16.2804L72.7306 13.2099C72.2969 12.7876 72.3957 12.2957 72.4579 12.1031ZM41.7012 12.1031C41.7635 11.9114 41.9731 11.4558 42.5726 11.3685L46.9255 10.7358C48.3034 10.5359 49.4944 9.67099 50.1109 8.42257L52.0576 4.47745C52.3254 3.93455 52.8238 3.87549 53.0253 3.87549C53.2267 3.87549 53.7251 3.93455 53.9937 4.47745L55.9404 8.42257C56.5569 9.67099 57.7471 10.5359 59.125 10.7358L63.4787 11.3685C64.0774 11.4558 64.2878 11.9114 64.3501 12.1031C64.4124 12.2957 64.5103 12.7876 64.0766 13.2099L60.9268 16.2804C59.9292 17.2522 59.4745 18.6519 59.7099 20.0249L60.4535 24.36C60.5563 24.9571 60.1873 25.2977 60.0247 25.4159C59.8612 25.5348 59.4235 25.78 58.8871 25.4984L54.9938 23.4514C54.3772 23.1278 53.7017 22.9651 53.0253 22.9651C52.3497 22.9651 51.6733 23.1278 51.0575 23.4514L47.1634 25.4984C46.627 25.7808 46.1901 25.5348 46.0266 25.4167C45.8632 25.2977 45.4943 24.9571 45.597 24.36L46.3406 20.0249C46.576 18.6527 46.1213 17.253 45.1245 16.2812L41.9739 13.2108C41.5402 12.7876 41.6389 12.2957 41.7012 12.1031ZM10.9445 12.1031C11.0068 11.9114 11.2164 11.4558 11.8159 11.3685L16.1688 10.7358C17.5467 10.5359 18.7369 9.67099 19.3534 8.42257L21.3009 4.47745C21.5687 3.93455 22.0671 3.87549 22.2686 3.87549C22.4708 3.87549 22.9692 3.93455 23.237 4.47745L25.1837 8.42257C25.8002 9.67099 26.9904 10.5359 28.3683 10.7358L32.722 11.3685C33.3207 11.4558 33.5311 11.9114 33.5934 12.1031C33.6557 12.2957 33.7536 12.7876 33.3199 13.2099L30.1701 16.2812C29.1725 17.253 28.7186 18.6527 28.9541 20.0249L29.6976 24.36C29.7996 24.9571 29.4306 25.2977 29.268 25.4159C29.1045 25.5348 28.6668 25.78 28.1304 25.4984L24.2371 23.4514C23.0048 22.8033 21.5331 22.8033 20.3008 23.4514L16.4067 25.4984C15.8711 25.7808 15.4334 25.5348 15.2699 25.4167C15.1065 25.2977 14.7384 24.9571 14.8403 24.36L15.5839 20.0249C15.8193 18.6527 15.3646 17.253 14.3678 16.2812L11.218 13.2108C10.7835 12.7876 10.8822 12.2957 10.9445 12.1031ZM84.4373 102.322V103.576H21.6132V102.322C21.6132 99.5332 23.8819 97.2646 26.6708 97.2646H79.3797C82.1686 97.2646 84.4373 99.5332 84.4373 102.322ZM71.7856 94.1148H34.2649L36.3564 85.3548H69.6941L71.7856 94.1148ZM95.5469 82.2042H70.9482C70.9441 82.2042 10.5044 82.2042 10.5044 82.2042C6.62563 82.2042 3.44105 79.1863 3.17082 75.3763H16.8274C17.6972 75.3763 18.4027 74.6708 18.4027 73.801C18.4027 72.9312 17.6972 72.2257 16.8274 72.2257H3.14978V19.4132C3.14978 16.3379 5.03981 13.7132 7.74541 12.6549C7.79638 13.7003 8.23652 14.7035 9.01891 15.4657L12.1687 18.5362C12.4236 18.7846 12.5393 19.1414 12.4794 19.4917L11.7358 23.8276C11.4616 25.4264 12.1064 27.0114 13.4179 27.9645C14.1599 28.5033 15.0272 28.7768 15.9002 28.7768C16.5726 28.7768 17.2482 28.615 17.8728 28.2865L21.7661 26.2395C22.0817 26.0737 22.4571 26.0745 22.771 26.2395L26.6643 28.2865C28.0997 29.0414 29.8068 28.9176 31.1192 27.9645C32.4307 27.0114 33.0756 25.4264 32.8013 23.8276L32.0577 19.4925C31.9978 19.1422 32.1144 18.7846 32.3684 18.5362L35.5182 15.4657C36.4252 14.5822 36.871 13.3758 36.786 12.1557H38.5078C38.4228 13.3758 38.8686 14.5822 39.7756 15.4657L42.9254 18.5362C43.1795 18.7846 43.296 19.1422 43.2361 19.4925L42.4925 23.8276C42.2183 25.4264 42.8631 27.0114 44.1746 27.9645C45.487 28.9176 47.1933 29.0414 48.6295 28.2865L52.5228 26.2395C52.8375 26.0745 53.2138 26.0745 53.5277 26.2395L57.421 28.2865C58.0457 28.615 58.7212 28.7768 59.3936 28.7768C60.2674 28.7768 61.1348 28.5033 61.8759 27.9645C63.1882 27.0114 63.8323 25.4264 63.558 23.8276L62.8144 19.4925C62.7545 19.1422 62.8711 18.7846 63.1251 18.5362L66.2757 15.4657C67.1819 14.5822 67.6277 13.3758 67.5427 12.1557H69.2645C69.1795 13.3758 69.6253 14.5822 70.5323 15.4657L73.6821 18.5362C73.937 18.7846 74.0527 19.1422 73.9928 19.4925L73.2492 23.8276C72.975 25.4264 73.6198 27.0114 74.9313 27.9645C75.6733 28.5033 76.5406 28.7768 77.4136 28.7768C78.086 28.7768 78.7616 28.615 79.3862 28.2865L83.2795 26.2395C83.5942 26.0745 83.9697 26.0745 84.2844 26.2395L88.1785 28.2865C89.6139 29.0414 91.3202 28.9184 92.6326 27.9653C93.9449 27.0114 94.589 25.4264 94.3155 23.8276L93.5719 19.4925C93.5112 19.1422 93.6278 18.7846 93.8826 18.537L97.0324 15.4665C97.8148 14.7035 98.2541 13.7011 98.3059 12.6557C101.01 13.7132 102.899 16.3379 102.899 19.4132V72.2257H22.0776C21.2078 72.2257 20.5031 72.9312 20.5031 73.801C20.5031 74.6708 21.2078 75.3763 22.0776 75.3763H102.878C102.608 79.1863 99.4241 82.2042 95.5469 82.2042Z" fill="#38ABFF"/>
<path d="M48.7249 50.3851C48.9239 50.7524 49.2597 51.0267 49.6602 51.1457C50.0599 51.2654 50.492 51.2209 50.8593 51.0227L53.2979 49.7055V67.3177C53.2979 68.1875 54.0034 68.893 54.8732 68.893H83.4607C84.3305 68.893 85.0352 68.1875 85.0352 67.3177V58.0593C85.0352 57.1896 84.3305 56.484 83.4607 56.484C82.5909 56.484 81.8854 57.1896 81.8854 58.0593V65.7424H56.4485V47.0638C56.4485 46.5096 56.1564 45.9958 55.6806 45.7118C55.2033 45.427 54.6127 45.4149 54.1248 45.6787L50.7484 47.5023L46.6504 39.9171L55.2712 35.2608H57.8935C58.6629 40.7958 63.4236 45.0718 69.1674 45.0718C74.9103 45.0718 79.6718 40.7958 80.4404 35.2608H83.0626L91.6835 39.9171L87.5863 47.5023L84.2091 45.6787C83.7212 45.4149 83.1306 45.427 82.6541 45.711C82.1775 45.9958 81.8854 46.5096 81.8854 47.0638V52.8083C81.8854 53.6781 82.5909 54.3836 83.4607 54.3836C84.3305 54.3836 85.036 53.6781 85.036 52.8083V49.7047L87.4746 51.0219C87.8419 51.2201 88.2732 51.2654 88.6737 51.1457C89.0742 51.0259 89.4099 50.7524 89.609 50.3851L95.203 40.028C95.4021 39.6606 95.4466 39.2294 95.3268 38.8289C95.2071 38.4284 94.9336 38.0926 94.5663 37.8936L84.2091 32.2996C83.9793 32.1758 83.722 32.1102 83.4607 32.1102H54.8732C54.6118 32.1102 54.3546 32.1758 54.1248 32.2996L43.7684 37.8944C43.4003 38.0926 43.1268 38.4292 43.0079 38.8289C42.8881 39.2294 42.9326 39.6606 43.1309 40.028L48.7249 50.3851ZM69.1674 41.9212C65.1648 41.9212 61.8216 39.0506 61.0846 35.2608H77.2493C76.5131 39.0506 73.1691 41.9212 69.1674 41.9212Z" fill="#38ABFF"/>
<path d="M10.5287 39.9374H34.7819C35.6517 39.9374 36.3572 39.2327 36.3572 38.3629C36.3572 37.4931 35.6517 36.7876 34.7819 36.7876H10.5287C9.65889 36.7876 8.95337 37.4931 8.95337 38.3629C8.95337 39.2327 9.65889 39.9374 10.5287 39.9374Z" fill="#38ABFF"/>
<path d="M10.5287 47.5072H34.7819C35.6517 47.5072 36.3572 46.8016 36.3572 45.9319C36.3572 45.0621 35.6517 44.3566 34.7819 44.3566H10.5287C9.65889 44.3566 8.95337 45.0621 8.95337 45.9319C8.95337 46.8016 9.65889 47.5072 10.5287 47.5072Z" fill="#38ABFF"/>
<path d="M10.5287 55.0763H34.7819C35.6517 55.0763 36.3572 54.3708 36.3572 53.501C36.3572 52.6312 35.6517 51.9265 34.7819 51.9265H10.5287C9.65889 51.9265 8.95337 52.6312 8.95337 53.501C8.95337 54.3708 9.65889 55.0763 10.5287 55.0763Z" fill="#38ABFF"/>
<path d="M25.3326 61.0708C25.3326 60.201 24.6278 59.4955 23.7581 59.4955H10.5287C9.65889 59.4955 8.95337 60.201 8.95337 61.0708C8.95337 61.9405 9.65889 62.6453 10.5287 62.6453H23.7581C24.6278 62.6453 25.3326 61.9405 25.3326 61.0708Z" fill="#38ABFF"/>
</g>
<defs>
<clipPath id="clip0">
<rect width="106.049" height="106.049" fill="white" transform="translate(0 0.725708)"/>
</clipPath>
</defs>
</svg>
