<svg width="32" height="32" viewBox="0 0 32 32" fill="none" xmlns="http://www.w3.org/2000/svg">
<g clip-path="url(#clip0)">
<path d="M15.6494 31.299C24.2924 31.299 31.2989 24.2925 31.2989 15.6495C31.2989 7.00652 24.2924 0 15.6494 0C7.0064 0 -0.00012207 7.00652 -0.00012207 15.6495C-0.00012207 24.2925 7.0064 31.299 15.6494 31.299Z" fill="white"/>
<path d="M10.0674 19.0204L5.02033 16.4968C4.88199 16.4276 4.88064 16.2307 5.018 16.1596L24.1924 6.2418C24.3332 6.16894 24.4958 6.29138 24.4648 6.4469L21.1635 22.9533C21.1399 23.0711 21.0139 23.1373 20.9035 23.09L16.4169 21.1673C16.3632 21.1442 16.3017 21.1473 16.2506 21.1758L10.453 24.3966C10.3269 24.4666 10.1719 24.3755 10.1719 24.2313V19.1896C10.172 19.1179 10.1315 19.0524 10.0674 19.0204Z" fill="#2F9ED7"/>
<path d="M12.245 20.7214L12.2136 15.6825C12.2134 15.6502 12.2301 15.6203 12.2576 15.6035L20.443 10.6031C20.5358 10.5464 20.6329 10.6693 20.5562 10.7464L14.327 17.0199C14.3201 17.0269 14.3143 17.0349 14.31 17.0436L13.2445 19.1745L12.4187 20.7632C12.3743 20.8484 12.2456 20.8174 12.245 20.7214Z" fill="white"/>
</g>
<defs>
<clipPath id="clip0">
<rect width="31.299" height="31.299" fill="white" transform="translate(-0.00012207)"/>
</clipPath>
</defs>
</svg>
