<svg width="25" height="25" viewBox="0 0 25 25" fill="none" xmlns="http://www.w3.org/2000/svg">
<path d="M12.5 25C19.4036 25 25 19.4036 25 12.5C25 5.59644 19.4036 0 12.5 0C5.59644 0 0 5.59644 0 12.5C0 19.4036 5.59644 25 12.5 25Z" fill="#1D85FF"/>
<path d="M8.04143 15.1924L4.01009 13.1767C3.89959 13.1214 3.89851 12.9642 4.00823 12.9074L19.3237 4.98557C19.4362 4.92736 19.5661 5.02517 19.5413 5.14938L16.9044 18.3338C16.8856 18.4279 16.7849 18.4808 16.6967 18.443L13.1131 16.9072C13.0701 16.8888 13.0211 16.8913 12.9802 16.914L8.34939 19.4867C8.24871 19.5426 8.12493 19.4698 8.12493 19.3546V15.3276C8.12498 15.2703 8.09265 15.218 8.04143 15.1924Z" fill="#FCFCFC"/>
<path d="M9.78079 16.5511L9.75574 12.5263C9.75559 12.5005 9.76892 12.4766 9.79089 12.4632L16.3289 8.46913C16.4031 8.42387 16.4806 8.52202 16.4194 8.58364L11.4438 13.5946C11.4383 13.6001 11.4337 13.6065 11.4302 13.6135L10.5791 15.3155L9.91951 16.5845C9.88411 16.6526 9.78128 16.6278 9.78079 16.5511Z" fill="#1D85FF"/>
</svg>
