<svg width="32" height="32" viewBox="0 0 32 32" fill="none" xmlns="http://www.w3.org/2000/svg">
<g clip-path="url(#clip0)">
<path d="M15.6494 0C7.00669 0 -0.00012207 7.0065 -0.00012207 15.6495C-0.00012207 24.2925 7.00669 31.299 15.6494 31.299C24.2921 31.299 31.2989 24.2925 31.2989 15.6495C31.2989 7.0065 24.2921 0 15.6494 0ZM23.5876 17.3421C24.317 18.0545 25.0887 18.725 25.7435 19.5111C26.0336 19.8588 26.3071 20.2184 26.5152 20.6228C26.8123 21.1994 26.544 21.8318 26.0278 21.8661L22.8217 21.8654C21.9937 21.934 21.3348 21.6 20.7792 21.0339C20.3358 20.5827 19.9243 20.1009 19.4972 19.6343C19.3227 19.4429 19.1389 19.2626 18.9199 19.1207C18.4828 18.8364 18.103 18.9235 17.8526 19.3801C17.5974 19.8447 17.5392 20.3596 17.5148 20.8767C17.4799 21.6327 17.252 21.8302 16.4934 21.8658C14.8726 21.9416 13.3347 21.6957 11.9053 20.8786C10.6444 20.1578 9.66847 19.1406 8.81804 17.9888C7.16199 15.7436 5.8937 13.2794 4.75413 10.7444C4.49765 10.1735 4.68528 9.86807 5.31511 9.85623C6.3615 9.83605 7.4079 9.83862 8.45429 9.85527C8.88015 9.86199 9.16192 10.1057 9.32554 10.5075C9.89101 11.8987 10.5842 13.2224 11.4529 14.4501C11.6844 14.777 11.9207 15.1029 12.2572 15.3338C12.6287 15.5887 12.9117 15.5045 13.0869 15.0898C13.1989 14.8263 13.2473 14.5445 13.2716 14.2621C13.3549 13.2948 13.3648 12.3278 13.2207 11.3643C13.1311 10.7614 12.792 10.3721 12.191 10.2581C11.8849 10.2001 11.9297 10.0868 12.0786 9.91194C12.337 9.60968 12.579 9.42268 13.0629 9.42268L16.6852 9.42204C17.2561 9.53411 17.3842 9.79027 17.4617 10.3653L17.4649 14.3908C17.4582 14.6134 17.5766 15.273 17.9762 15.4186C18.2964 15.5243 18.5078 15.2675 18.6992 15.0648C19.5679 14.143 20.1869 13.055 20.7411 11.9288C20.9857 11.4322 21.1968 10.9183 21.4017 10.4034C21.5541 10.0227 21.791 9.83541 22.2207 9.84182L25.7089 9.84598C25.8117 9.84598 25.9161 9.84694 26.0179 9.86455C26.6058 9.96509 26.7669 10.218 26.585 10.7915C26.2987 11.6925 25.7426 12.4431 25.1989 13.1955C24.6161 14.0011 23.9946 14.7786 23.4176 15.5877C22.8874 16.3274 22.9293 16.6997 23.5876 17.3421Z" fill="white"/>
</g>
<defs>
<clipPath id="clip0">
<rect width="31.299" height="31.299" fill="white" transform="translate(-0.00012207)"/>
</clipPath>
</defs>
</svg>
